<svg width="370" height="351" viewBox="0 0 370 351" fill="none" xmlns="http://www.w3.org/2000/svg">
<path d="M19.7784 126.82C25.982 127.149 33.9047 128.227 39.553 129.188C41.4003 129.498 40.415 129.721 41.7008 129.954C44.2708 130.418 46.5953 130.557 48.9828 131.044C49.7831 131.208 48.7031 131.611 49.5449 131.772C54.2222 132.657 58.6878 133.16 63.374 133.975C86.803 138.06 109.339 142.109 132.823 146.454C140.653 147.904 149.846 150.033 157.893 151.246C158.825 151.386 158.356 150.816 158.54 150.808C161.418 150.707 160.326 151.495 162.117 151.945C169.267 153.736 177.221 155.208 184.214 156.278C187.184 156.731 184.397 155.263 187.266 156.322C187.466 156.394 186.629 156.761 187.426 156.959C189.234 157.408 192.726 157.945 194.14 158.24C196.865 158.813 197.319 158.889 199.911 159.362C203.456 160.013 207.618 161.02 211.439 161.591C212.254 161.711 211.273 161.005 212.582 161.15C213.892 161.296 217.305 161.955 218.438 162.284C219.574 162.613 219.008 162.928 219.197 163.057C220.742 164.141 224.901 163.772 225.414 163.837C234.762 165.045 242.671 167.095 251.364 168.637C258.053 169.821 265.048 170.845 271.429 171.989C278.907 173.331 285.286 174.721 292.554 175.911C293.318 176.037 292.526 175.28 293.46 175.432C303.496 177.068 313.467 178.797 323.27 180.789C324.244 180.988 322.896 181.317 323.863 181.547C330.071 182.995 339.378 185.507 343.496 183.748C347.615 184.459 352.592 185.278 356.301 186.274C358.645 186.907 356.259 187.169 359.2 187.322C359.859 187.357 359.083 186.732 360.063 186.821C364.143 187.191 369.008 187.993 372.958 188.205C373.775 188.249 373.639 187.769 373.887 187.715C376.076 187.306 379.295 188.788 379.994 188.944C385.275 190.128 389.532 190.308 394.732 190.707C395.962 190.799 394.557 190.08 395.733 190.143C400.986 190.42 407.231 190.748 412.186 190.599C412.666 190.578 413.122 190.56 413.553 190.544C414.92 190.494 413.72 191.121 414.364 191.125C416.621 191.193 418.414 189.962 419.315 190.102C419.171 190.182 418.91 190.255 418.463 190.764C418.25 191.02 417.991 191.448 417.908 192.013C417.817 192.574 417.961 193.181 418.169 193.562C418.611 194.335 418.985 194.464 419.173 194.587C419.373 194.691 419.471 194.717 419.538 194.736C419.673 194.77 419.649 194.749 419.659 194.741C419.665 194.732 419.669 194.721 419.672 194.709C419.685 194.662 419.693 194.6 419.706 194.539C419.73 194.417 419.763 194.296 419.76 194.27C418.577 193.324 417.191 194.396 416.671 194.389C411.461 194.511 408.262 193.316 403.153 193.364C402.515 193.371 403.941 193.971 402.147 193.957C391.018 193.885 378.988 193.476 367.82 192.702C366.099 192.584 367.341 192.19 367.235 192.134C365.488 191.259 364.283 192.33 363.707 192.354C359.126 192.518 355.162 191.46 351.967 192.668C333.093 191.559 314.188 191.414 295.487 189.014C295.248 188.984 295.713 188.469 295.236 188.413C289.531 187.728 290.59 188.645 286.722 189.411C285.748 189.604 282.926 188.144 282.675 188.033C281.76 187.627 282.795 186.891 282.485 186.802C279.931 186.096 280.159 188.802 276.661 188.53C276.552 188.517 277.05 188.062 276.761 187.99C275.861 187.765 274.942 187.888 274.063 187.647C272.051 187.09 271.427 185.734 268.25 186.224C267.847 186.288 268.32 187.857 265.205 187.512C263.964 187.377 258.454 186.9 256.921 186.651C255.387 186.406 256.493 186.02 256.385 185.988C252.293 184.941 253.895 184.826 251.913 183.666C249.935 182.507 250.281 184.831 249.408 184.997C248.534 185.164 245.555 184.314 244.832 184.048C244.103 183.783 245.07 183.574 244.416 183.398C240.081 182.235 242.357 184.311 240.864 184.51C237.339 184.978 234.891 182.991 231.788 182.446C230.943 182.298 231.59 182.765 230.829 182.708C227.817 182.474 226.09 181.724 222.656 181.755C222.101 181.761 219.222 182.397 217.536 181.406C217.299 181.264 218.073 180.948 216.814 180.675C214.931 180.267 211.545 179.677 209.515 179.507C208.011 179.381 209.627 180.332 207.753 179.824C206.92 179.597 208.552 179.441 206.984 179.047C205.421 178.656 201.414 178.02 199.907 177.775C198.399 177.533 199.135 178.192 199.007 178.206C198.254 178.286 195.265 178.019 195.003 177.969C182.033 175.699 170.261 172.27 157.823 168.984C156.864 168.727 157.342 169.445 157.194 169.411C156.399 169.236 155.969 169.063 155.742 168.888C154.887 168.289 156.361 167.749 154.538 166.803C154.591 167.995 153.062 167.325 150.882 166.759C149.85 166.491 150.27 167.084 150.163 167.096C149.417 167.204 148.513 166.855 147.988 166.515C147.449 166.171 147.172 165.8 147.052 165.665C146.119 164.652 145.119 165.098 144.179 164.243C143.854 163.873 144.225 163.743 144.367 163.575C144.543 163.415 144.321 163.179 143.452 162.756C143.138 162.82 143.145 163.235 143.099 163.587C143.074 163.762 143.029 163.918 142.892 163.995C142.824 164.033 142.734 164.051 142.618 164.041C142.56 164.037 142.495 164.025 142.425 164.006C142.389 163.996 142.352 163.984 142.314 163.97C142.275 163.956 142.13 163.878 142.035 163.823C141.654 163.558 141.246 163.462 140.89 162.551C140.707 162.081 140.91 161.294 141.218 160.986C141.522 160.635 141.808 160.508 142.043 160.41C142.282 160.316 142.498 160.265 142.724 160.224C142.837 160.203 142.952 160.187 143.072 160.173C143.131 160.166 143.193 160.159 143.253 160.154C143.278 160.15 143.304 160.147 143.329 160.144C143.535 160.12 143.756 160.102 143.999 160.091C144.483 160.069 145.051 160.071 145.719 160.1C145.873 160.106 146.103 160.118 146.199 160.123C146.312 160.129 146.428 160.135 146.546 160.142C146.783 160.157 147.031 160.174 147.29 160.195C148.28 160.273 149.705 160.434 150.805 160.584C151.831 160.723 152.956 160.895 154.155 161.091C158.726 161.844 163.356 162.808 165.749 163.233C171.056 164.173 172.795 164.399 175.78 165.051C181.326 166.266 179.616 165.182 182.95 165.398C186.388 165.637 184.421 167.246 184.834 167.738C185.245 168.23 185.849 167.904 186.42 168.236C186.989 168.567 185.621 168.61 187.04 168.948C188.465 169.286 192.593 169.278 193.09 168.929C194.295 168.215 192.73 166.956 196.384 167.959C196.595 168.018 195.807 168.389 196.622 168.588C203.324 170.198 209.852 171.43 216.521 173.028C217.392 173.24 216.502 173.646 217.008 173.776C222.316 175.138 220.577 173.846 223.769 173.376C222.837 174.627 224.318 175.778 228.566 176.592C230.998 177.06 230.696 176.379 232.365 176.257C232.866 176.22 234.538 176.967 234.912 176.745C236.145 176.023 234.664 174.666 238.889 175.902C239.074 175.957 238.374 176.348 239.023 176.504C243.257 177.524 243.889 176.642 248.402 177.391C251.914 177.973 258.287 179.82 262.192 180.681C261.803 182.212 265.668 182.597 267.435 181.835C270.045 182.391 272.984 182.904 275.42 183.535C276.273 183.755 275.618 184.091 275.717 184.161C277.237 185.248 278.576 184.433 279.147 184.503C285.344 185.312 290.238 187.096 296.19 187.477C296.403 187.49 296.95 186.482 298.36 187.577C298.45 187.651 296.419 187.756 299.167 188.341C301.925 188.928 307.011 190.538 310.901 190.796C311.846 190.86 314.354 190.454 316.099 191.511C316.331 191.654 315.995 191.907 316.323 192.151C317.383 192.93 318.239 191.973 319.432 193.171C320.639 194.371 323.323 195.627 327.294 195.761C327.42 195.768 328.502 195.09 329.71 195.346C331.637 195.757 334.349 196.488 336.375 196.89C337.345 197.082 336.832 196.423 337.002 196.447C343.552 197.455 348.066 198.861 354.995 200.478C356.261 200.775 360.071 200.788 362.422 201.864C365.004 203.044 361.688 205.1 368.042 205.74C370.601 206 374.465 203.323 378.631 205.965C387.453 207.317 395.42 209.864 404.278 211.044C404.675 211.097 406.112 210.425 407.045 210.63C408.427 210.935 409.097 211.524 410.078 211.755C414.186 212.734 418.026 213.137 421.954 214.005C423.469 214.339 422.848 214.678 424.654 215.076C426.459 215.474 427.786 215.132 430.164 215.919C431.959 216.516 433.545 218.101 435.938 218.741C436.281 217.571 437.913 217.934 441.005 218.245C441.595 218.304 441.061 217.761 441.345 217.768C442.501 217.784 443.457 218.34 444.556 218.325C444.823 218.322 444.919 217.918 445.142 217.892C447.043 217.662 449.759 219.177 450.222 219.439C452.007 220.439 452.99 220.091 454.411 220.634C455.855 221.182 453.561 221.016 455.274 221.522C458.826 222.57 463.423 223.456 466.988 224.216C468.411 224.517 467.552 223.773 467.758 223.804C470.713 224.274 473.73 225.504 475.593 224.765C477.081 227.989 477.467 224.873 481.569 226.312C481.891 226.426 482.037 227.835 480.724 227.763C479.41 227.691 477.553 226.873 475.695 226.802C475.258 226.784 472.556 227.513 472.203 227.518C469.455 227.557 469.484 225.504 469.368 225.367C468.068 223.876 464.867 224.602 464.066 224.531C460.424 224.215 457.424 223.303 454.328 222.976C452.319 222.762 451.89 224.022 450.371 223.666C445.331 222.486 443.915 220.312 438.736 220.873C437.63 220.992 438.342 222.613 434.914 220.746C434.699 220.629 432.182 219.049 430.464 219.366C430.249 219.406 430.17 219.819 429.901 219.8C428.095 219.661 426.987 219.09 425.027 218.851C423.068 218.611 420.688 218.365 418.555 217.781C417.261 217.428 415.731 216.313 415.139 215.996C413.471 215.088 411.374 215.583 410.401 214.7C409.419 213.812 411.81 213.26 408.965 212.232C408.637 213.28 408.162 214.328 407.766 215.369C401.342 214.011 395.172 212.388 388.699 211.115C387.898 210.959 388.597 211.701 387.738 211.549C384.128 210.907 381.067 209.856 377.296 209.258C374.377 208.797 371.072 208.76 368.021 208.3C366.423 206.699 361.85 206.204 358.614 205.432C357.48 205.162 357.622 204.85 356.832 204.579C353.849 203.564 355.065 204.937 354.191 204.938C350.434 204.935 350.619 202.421 346.356 201.623C346.13 201.579 343.115 202.331 342.721 202.336C340.208 202.382 342.414 201.801 340.928 201.401C338.221 200.672 336.366 199.973 333.049 199.705C332.082 199.628 329.656 199.988 327.956 198.991C327.732 198.861 327.951 198.455 327.763 198.391C324.347 197.267 323.985 198.607 321.899 198.667C319.827 198.73 316.876 197.165 316.305 196.77C314.792 195.74 317.632 196.725 317.736 196.674C318.953 196.069 316.655 195.755 314.941 195.341C314.956 193.959 312.526 193.557 313.164 194.917C313.237 195.066 314.606 195.211 314.941 195.341C313.163 196.344 310.477 195.982 307.807 194.18C306.555 193.336 307.988 192.928 303.785 192.345C301.856 192.076 302.41 193.139 300.682 193.055C296.734 192.864 291.962 191.029 288.056 190.397C286.603 190.161 287.91 190.941 286.913 190.797C284.271 190.416 282.052 189.587 279.419 189.27C279.18 189.242 279.651 189.88 278.843 189.728C272.786 188.6 267.398 187.195 261.055 185.949C258.046 185.358 252.357 184.555 249.177 183.881C243.73 182.726 236.922 180.626 232.197 179.919C229.12 179.457 229.696 180.112 228.33 180.224C225.61 180.427 221.247 178.314 220.693 178.01C220.672 177.999 223.367 178.379 221.992 177.84C221.27 177.121 220.724 178.013 220.693 178.01C220.289 177.804 215.131 176.713 214.027 176.612C213.425 176.556 213.663 177.117 213.351 177.079C206.027 176.174 198.885 174.992 191.826 173.482C191.705 173.45 191.99 172.924 191.705 172.856C187.574 171.858 184.607 172.039 181.242 171.871C177.813 171.691 174.863 171.048 173.093 169.762C170.726 169.485 166.659 168.38 164.697 167.805C162.66 167.217 162.284 168.279 162.048 168.264C155.739 168.015 152.72 166.877 146.68 166.189C146.355 166.155 146.048 166.128 145.672 166.103C145.148 166.068 144.661 166.049 144.279 166.049C144.089 166.049 143.925 166.054 143.803 166.062C143.741 166.066 143.694 166.07 143.652 166.075C143.563 166.082 143.547 166.096 143.694 166.068C143.844 166.024 144.158 166.01 144.887 165.541C145.242 165.299 145.728 164.893 146.135 164.193C146.535 163.565 146.806 162.363 146.66 161.528C146.342 159.776 145.635 159.364 145.432 159.118C145.179 158.896 145.145 158.898 145.203 158.923C145.299 158.966 145.619 159.113 146.073 159.291C146.508 159.464 147.222 159.724 147.508 159.813C148.276 160.069 149.158 160.344 149.97 160.588C152.671 161.389 153.399 161.88 155.927 162.484C156.257 162.561 156.074 161.991 156.178 162.003C156.98 162.073 157.455 162.191 157.708 162.326C158.242 162.636 157.563 163.126 157.872 163.379C159.443 164.657 160.446 165.39 163.744 165.906C164.496 166.025 167.16 164.936 168.453 165.158C170.194 165.464 169.394 165.905 171.243 166.205C171.402 166.231 171.457 165.852 172.581 166.139C177.912 167.494 183.461 168.909 189.042 169.954C189.787 170.095 188.949 169.314 190.027 169.506C195.106 170.412 200.758 171.421 205.706 172.503C206.934 172.773 206.09 173.068 206.339 173.236C207.873 174.256 210.415 173.524 210.783 173.557C220.011 174.413 226.977 176.347 236.474 176.988C236.989 177.022 241.072 176.293 242.731 177.5C242.842 177.581 244.489 178.813 246.109 178.267C246.21 178.233 245.181 177.583 247.071 177.838C248.962 178.094 252.055 178.05 254.616 178.895C255.426 179.161 257.293 180.39 259.842 179.794C260.01 179.752 263.995 178.232 265.243 179.641C265.445 179.872 265.093 181.221 268.109 180.776C268.685 180.688 267.687 180.296 269.189 180.233C271.492 180.134 274.492 180.749 277.34 180.36C277.837 180.291 279.986 179.524 281.595 180.354C281.848 180.484 281.318 180.903 282.193 181.02C286.392 181.581 290.797 181.583 295.026 182.179C296.538 182.389 295.714 183.077 297.283 183.377C298.854 183.678 302.018 184.066 303.678 183.826C305.337 183.586 303.619 182.302 306.075 182.353C316.909 182.577 327.383 183.781 338.195 184.327C339.769 184.406 338.483 183.932 340.795 184.017C349.521 184.344 364.51 184.425 371.912 185.51C378.036 186.39 370.312 186.735 374.974 187.149C377.212 187.346 379.566 186.031 380.085 186C385.533 185.692 389 186.374 393.766 186.288C394.714 186.27 393.799 185.695 394.601 185.685C397.409 185.647 400.469 185.958 403.117 185.969C404.4 185.974 404.176 185.545 405.309 185.602C407.808 185.73 410.548 185.972 412.868 186.438C412.987 186.46 412.653 186.591 412.541 186.727C412.482 186.795 412.474 186.864 412.592 186.92C412.656 186.948 412.729 186.973 412.886 186.994C413.054 187.015 413.273 187.032 413.547 187.043C414.436 187.078 415.302 187.137 416.106 187.204C416.444 187.235 417.055 187.279 417.557 187.322C418.068 187.365 418.535 187.409 418.961 187.451C419.073 187.462 419.152 187.471 419.289 187.484C419.478 187.502 419.659 187.52 419.832 187.539C420.182 187.578 420.495 187.616 420.849 187.679C420.939 187.694 421.032 187.712 421.134 187.734C421.184 187.744 421.237 187.756 421.293 187.769C421.307 187.773 421.321 187.776 421.336 187.78C421.387 187.792 421.51 187.823 421.615 187.854C421.839 187.923 422.107 188.002 422.553 188.229C422.972 188.49 423.745 188.775 424.579 190.26C424.972 190.991 425.209 192.115 425.038 193.111C424.881 194.114 424.434 194.857 424.061 195.32C423.281 196.238 422.777 196.425 422.432 196.617C422.262 196.701 422.098 196.768 422.006 196.803C421.984 196.811 421.963 196.819 421.942 196.827C421.776 196.888 421.641 196.93 421.519 196.966C421.042 197.101 420.715 197.159 420.327 197.228C420.138 197.261 419.933 197.294 419.732 197.325C419.633 197.342 419.53 197.359 419.425 197.377C419.215 197.413 418.992 197.451 418.756 197.492C418.284 197.573 417.758 197.665 417.176 197.772C416.049 197.998 416.365 198.95 413.731 198.493C413.353 198.43 413.507 197.878 412.75 197.87C412.429 197.86 411.92 197.991 410.975 198.38C410.575 198.603 405.458 200.036 403.273 199.063C402.674 198.817 401.031 197.805 399.643 197.885C399.47 197.9 400.131 198.455 399.082 198.453C395.385 198.433 390.964 198.029 387.144 197.833C386.07 197.777 387.618 198.465 386.01 198.362C381.281 198.044 376.403 197.356 371.915 196.639C370.421 196.392 371.513 196.076 371.41 196.014C369.747 195.014 368.547 195.937 367.94 195.922C364.181 195.82 361.163 194.91 357.85 194.588C356.905 194.493 357.502 195.089 357.308 195.108C355.297 195.277 356.877 194.574 355.652 194.301C352.204 193.532 348.205 192.995 344.776 192.552C343.489 192.386 344.847 193.184 343.69 193.028C336.674 192.086 329.798 190.958 322.981 189.539C321.759 189.28 322.606 188.955 322.366 188.812C320.713 187.812 317.929 188.364 317.305 188.359C314.473 188.335 313.454 187.761 310.965 187.427C299.06 185.85 284.26 183.048 273.113 180.936C258.438 178.162 247.253 175.733 233.242 173.341C232.351 173.188 233.139 173.943 232.373 173.82C222.516 172.203 212.819 170.216 202.919 168.61C202.106 168.478 203.173 169.252 201.865 169.057C199.182 168.663 195.8 168.022 193.135 167.356C191.835 167.032 193.687 166.866 192.376 166.55C189.321 165.813 186.044 165.181 182.847 164.7C181.488 164.496 183.424 165.44 181.666 165.13C169.704 163.039 158.015 161.047 146.037 158.157C145.218 157.96 144.699 156.658 142.906 156.574C142.716 156.876 142.656 157.26 142.537 157.598C125.109 154.717 107.986 151.331 90.5664 148.408C89.8224 148.284 91.0059 149.117 89.5666 148.88C81.3515 147.527 73.258 146.416 64.9843 144.531C64.1423 144.342 64.7338 143.307 62.2197 143.101C61.768 143.063 58.0513 142.664 57.0891 142.77C56.9569 142.787 57.5428 143.396 56.3736 143.242C49.3029 142.298 42.0605 141.192 35.2198 140.049C34.1442 139.867 35.3611 139.457 34.5968 139.323C28.828 138.339 22.664 138.114 17.3976 137.212C13.9166 136.62 15.1563 135.756 13.2793 134.7C12.9929 134.547 10.7884 134.418 10.7146 133.871C10.481 132.486 11.608 131.029 11.2358 129.547C11.1345 129.221 8.24281 129.461 9.97371 128.758C10.0821 128.708 12.2527 128.547 12.8384 128.323C13.2361 128.166 12.5634 127.573 13.3726 127.388C14.1884 127.204 15.0499 127.721 16.4731 127.551C17.822 127.376 17.225 126.691 19.7784 126.82ZM155.312 165.206C153.21 164.379 152.653 166.267 155.035 166.124C155.153 166.116 155.423 165.248 155.312 165.206ZM395.479 210.955C393.059 209.584 391.027 210.456 392.727 211.48C394.425 212.502 396.216 211.371 395.479 210.955ZM422.436 215.847C419.547 214.562 418.525 217.166 421.865 217.285C422.062 217.293 422.606 215.922 422.436 215.847ZM22.2996 135.12C22.2683 135.09 20.6191 134.917 20.5832 134.941C19.6535 135.478 22.9398 135.821 22.2996 135.12ZM449.246 220.686C448.385 220.126 445.581 219.986 446.659 220.682C447.529 221.243 450.322 221.382 449.246 220.686ZM231.818 181.494C231.846 181.527 233.015 181.695 233.007 181.529C232.997 180.997 231.346 180.946 231.818 181.494ZM494.527 230.077C487.92 228.589 484.23 225.493 491.523 227.279C492.835 227.601 488.524 227.394 490.166 227.947C493.17 228.957 495.483 227.98 498.384 229.371C498.913 229.625 494.908 230.168 494.515 230.078C494.519 230.078 494.523 230.078 494.527 230.077ZM154.378 162.72C154.325 162.685 152.674 162.442 152.647 162.465C151.678 162.96 154.982 163.446 154.378 162.72ZM299.871 188.761C299.96 188.822 303.708 189.102 303.831 189.058C305.846 188.17 298.275 187.601 299.871 188.761ZM262.247 180.735C264.09 180.461 266.184 180.795 267.427 181.833C265.7 181.453 263.964 181.108 262.247 180.735Z" fill="white"/>
</svg>
