<svg width="15" height="27" viewBox="0 0 15 27" fill="none" xmlns="http://www.w3.org/2000/svg">
<path d="M13.8487 23.95C14.4467 24.5684 14.4465 25.5496 13.8482 26.1676C13.2214 26.8151 12.183 26.815 11.5564 26.1673L0.614822 14.8575C0.419982 14.6573 0.265354 14.4193 0.159837 14.1571C0.0543212 13.8948 8.17385e-10 13.6136 8.01164e-10 13.3296C7.84944e-10 13.0456 0.0543212 12.7643 0.159837 12.5021C0.265354 12.2399 0.419982 12.0018 0.614822 11.8016L11.5565 0.485877C12.1829 -0.161925 13.2214 -0.161968 13.8478 0.485779C14.4452 1.10353 14.4453 2.08371 13.8479 2.70152L3.57442 13.3263L13.8487 23.95Z" fill="white"/>
</svg>
